<mxfile host="app.diagrams.net" agent="Mozilla/5.0 (Windows NT 10.0; Win64; x64) AppleWebKit/537.36 (KHTML, like Gecko) Chrome/137.0.0.0 Safari/537.36" version="27.1.6">
  <diagram name="P치gina-1" id="uthAYpNFaqwrPK7Y62tU">
    <mxGraphModel grid="1" page="1" gridSize="10" guides="1" tooltips="1" connect="1" arrows="1" fold="1" pageScale="1" pageWidth="827" pageHeight="1169" math="0" shadow="0">
      <root>
        <mxCell id="0" />
        <mxCell id="1" parent="0" />
        <mxCell id="Q9twDd0dUCqDXI2wr9aZ-1" value="Usuario" style="html=1;whiteSpace=wrap;" vertex="1" parent="1">
          <mxGeometry x="95" y="110" width="110" height="50" as="geometry" />
        </mxCell>
        <mxCell id="Q9twDd0dUCqDXI2wr9aZ-2" value="Sistema&lt;span style=&quot;color: rgba(0, 0, 0, 0); font-family: monospace; font-size: 0px; text-align: start; text-wrap-mode: nowrap;&quot;&gt;%3CmxGraphModel%3E%3Croot%3E%3CmxCell%20id%3D%220%22%2F%3E%3CmxCell%20id%3D%221%22%20parent%3D%220%22%2F%3E%3CmxCell%20id%3D%222%22%20value%3D%22Usuario%22%20style%3D%22html%3D1%3BwhiteSpace%3Dwrap%3B%22%20vertex%3D%221%22%20parent%3D%221%22%3E%3CmxGeometry%20x%3D%2270%22%20y%3D%2240%22%20width%3D%22110%22%20height%3D%2250%22%20as%3D%22geometry%22%2F%3E%3C%2FmxCell%3E%3C%2Froot%3E%3C%2FmxGraphModel%3E&lt;/span&gt;" style="html=1;whiteSpace=wrap;" vertex="1" parent="1">
          <mxGeometry x="290" y="110" width="110" height="50" as="geometry" />
        </mxCell>
        <mxCell id="Q9twDd0dUCqDXI2wr9aZ-4" value="Usuario" style="html=1;whiteSpace=wrap;" vertex="1" parent="1">
          <mxGeometry x="100" y="460" width="110" height="50" as="geometry" />
        </mxCell>
        <mxCell id="Q9twDd0dUCqDXI2wr9aZ-5" value="Sistema&lt;span style=&quot;color: rgba(0, 0, 0, 0); font-family: monospace; font-size: 0px; text-align: start; text-wrap-mode: nowrap;&quot;&gt;%3CmxGraphModel%3E%3Croot%3E%3CmxCell%20id%3D%220%22%2F%3E%3CmxCell%20id%3D%221%22%20parent%3D%220%22%2F%3E%3CmxCell%20id%3D%222%22%20value%3D%22Usuario%22%20style%3D%22html%3D1%3BwhiteSpace%3Dwrap%3B%22%20vertex%3D%221%22%20parent%3D%221%22%3E%3CmxGeometry%20x%3D%2270%22%20y%3D%2240%22%20width%3D%22110%22%20height%3D%2250%22%20as%3D%22geometry%22%2F%3E%3C%2FmxCell%3E%3C%2Froot%3E%3C%2FmxGraphModel%3E&lt;/span&gt;" style="html=1;whiteSpace=wrap;" vertex="1" parent="1">
          <mxGeometry x="290" y="460" width="110" height="50" as="geometry" />
        </mxCell>
        <mxCell id="Q9twDd0dUCqDXI2wr9aZ-7" value="" style="endArrow=none;dashed=1;html=1;rounded=0;entryX=0.5;entryY=1;entryDx=0;entryDy=0;exitX=0.5;exitY=0;exitDx=0;exitDy=0;" edge="1" parent="1" source="Q9twDd0dUCqDXI2wr9aZ-9" target="Q9twDd0dUCqDXI2wr9aZ-2">
          <mxGeometry width="50" height="50" relative="1" as="geometry">
            <mxPoint x="325" y="390" as="sourcePoint" />
            <mxPoint x="375" y="340" as="targetPoint" />
          </mxGeometry>
        </mxCell>
        <mxCell id="Q9twDd0dUCqDXI2wr9aZ-8" value="" style="endArrow=none;dashed=1;html=1;rounded=0;entryX=0.5;entryY=1;entryDx=0;entryDy=0;exitX=0.5;exitY=0;exitDx=0;exitDy=0;" edge="1" parent="1" source="Q9twDd0dUCqDXI2wr9aZ-5" target="Q9twDd0dUCqDXI2wr9aZ-9">
          <mxGeometry width="50" height="50" relative="1" as="geometry">
            <mxPoint x="350" y="450" as="sourcePoint" />
            <mxPoint x="350" y="160" as="targetPoint" />
          </mxGeometry>
        </mxCell>
        <mxCell id="Q9twDd0dUCqDXI2wr9aZ-9" value="" style="html=1;points=[[0,0,0,0,5],[0,1,0,0,-5],[1,0,0,0,5],[1,1,0,0,-5]];perimeter=orthogonalPerimeter;outlineConnect=0;targetShapes=umlLifeline;portConstraint=eastwest;newEdgeStyle={&quot;curved&quot;:0,&quot;rounded&quot;:0};" vertex="1" parent="1">
          <mxGeometry x="340" y="200" width="10" height="30" as="geometry" />
        </mxCell>
        <mxCell id="Q9twDd0dUCqDXI2wr9aZ-10" value="" style="endArrow=classic;html=1;rounded=0;entryX=0;entryY=0;entryDx=0;entryDy=5;entryPerimeter=0;" edge="1" parent="1" target="Q9twDd0dUCqDXI2wr9aZ-9">
          <mxGeometry width="50" height="50" relative="1" as="geometry">
            <mxPoint x="150" y="205" as="sourcePoint" />
            <mxPoint x="255" y="180" as="targetPoint" />
          </mxGeometry>
        </mxCell>
        <mxCell id="Q9twDd0dUCqDXI2wr9aZ-11" value="1. Pulsa en foto de perfil" style="text;html=1;align=center;verticalAlign=middle;whiteSpace=wrap;rounded=0;" vertex="1" parent="1">
          <mxGeometry x="145" y="180" width="200" height="20" as="geometry" />
        </mxCell>
        <mxCell id="Q9twDd0dUCqDXI2wr9aZ-12" value="2. Mostrar opciones" style="text;html=1;align=center;verticalAlign=middle;whiteSpace=wrap;rounded=0;" vertex="1" parent="1">
          <mxGeometry x="155" y="230" width="170" height="20" as="geometry" />
        </mxCell>
        <mxCell id="Q9twDd0dUCqDXI2wr9aZ-16" value="" style="html=1;points=[[0,0,0,0,5],[0,1,0,0,-5],[1,0,0,0,5],[1,1,0,0,-5]];perimeter=orthogonalPerimeter;outlineConnect=0;targetShapes=umlLifeline;portConstraint=eastwest;newEdgeStyle={&quot;curved&quot;:0,&quot;rounded&quot;:0};" vertex="1" parent="1">
          <mxGeometry x="145" y="250" width="10" height="30" as="geometry" />
        </mxCell>
        <mxCell id="Q9twDd0dUCqDXI2wr9aZ-17" value="" style="endArrow=classic;html=1;rounded=0;entryX=1;entryY=0;entryDx=0;entryDy=5;entryPerimeter=0;" edge="1" parent="1" target="Q9twDd0dUCqDXI2wr9aZ-16">
          <mxGeometry width="50" height="50" relative="1" as="geometry">
            <mxPoint x="340" y="255" as="sourcePoint" />
            <mxPoint x="630" y="240" as="targetPoint" />
          </mxGeometry>
        </mxCell>
        <mxCell id="Q9twDd0dUCqDXI2wr9aZ-25" value="" style="endArrow=none;dashed=1;html=1;rounded=0;exitX=0.5;exitY=1;exitDx=0;exitDy=0;" edge="1" parent="1" source="Q9twDd0dUCqDXI2wr9aZ-1" target="Q9twDd0dUCqDXI2wr9aZ-16">
          <mxGeometry width="50" height="50" relative="1" as="geometry">
            <mxPoint x="133" y="180" as="sourcePoint" />
            <mxPoint x="138.5" y="540" as="targetPoint" />
          </mxGeometry>
        </mxCell>
        <mxCell id="Q9twDd0dUCqDXI2wr9aZ-26" value="3. Pulsar &quot;Cerrar sesi칩n&quot;" style="text;html=1;align=center;verticalAlign=middle;whiteSpace=wrap;rounded=0;" vertex="1" parent="1">
          <mxGeometry x="160" y="280" width="170" height="20" as="geometry" />
        </mxCell>
        <mxCell id="Q9twDd0dUCqDXI2wr9aZ-27" value="" style="endArrow=classic;html=1;rounded=0;entryX=0;entryY=0;entryDx=0;entryDy=5;entryPerimeter=0;" edge="1" parent="1" target="Q9twDd0dUCqDXI2wr9aZ-44">
          <mxGeometry width="50" height="50" relative="1" as="geometry">
            <mxPoint x="160" y="305" as="sourcePoint" />
            <mxPoint x="188.75" y="320" as="targetPoint" />
          </mxGeometry>
        </mxCell>
        <mxCell id="Q9twDd0dUCqDXI2wr9aZ-28" value="" style="endArrow=classic;html=1;rounded=0;entryX=1;entryY=1;entryDx=0;entryDy=-5;entryPerimeter=0;edgeStyle=orthogonalEdgeStyle;exitX=1;exitY=0;exitDx=0;exitDy=5;exitPerimeter=0;" edge="1" parent="1" source="Q9twDd0dUCqDXI2wr9aZ-45" target="Q9twDd0dUCqDXI2wr9aZ-45">
          <mxGeometry width="50" height="50" relative="1" as="geometry">
            <mxPoint x="368.75" y="340" as="sourcePoint" />
            <mxPoint x="140" y="355" as="targetPoint" />
            <Array as="points">
              <mxPoint x="378.75" y="355" />
              <mxPoint x="378.75" y="375" />
            </Array>
          </mxGeometry>
        </mxCell>
        <mxCell id="Q9twDd0dUCqDXI2wr9aZ-29" value="4. Invalidar sesi칩n" style="text;html=1;align=center;verticalAlign=middle;whiteSpace=wrap;rounded=0;" vertex="1" parent="1">
          <mxGeometry x="376.25" y="355" width="118.75" height="20" as="geometry" />
        </mxCell>
        <mxCell id="Q9twDd0dUCqDXI2wr9aZ-30" value="" style="endArrow=classic;html=1;rounded=0;entryX=1;entryY=0;entryDx=0;entryDy=5;entryPerimeter=0;" edge="1" parent="1" target="Q9twDd0dUCqDXI2wr9aZ-89">
          <mxGeometry width="50" height="50" relative="1" as="geometry">
            <mxPoint x="340" y="405" as="sourcePoint" />
            <mxPoint x="157.5" y="410" as="targetPoint" />
          </mxGeometry>
        </mxCell>
        <mxCell id="Q9twDd0dUCqDXI2wr9aZ-31" value="5. Redirigir al inicio de sesi칩n" style="text;html=1;align=center;verticalAlign=middle;whiteSpace=wrap;rounded=0;" vertex="1" parent="1">
          <mxGeometry x="160" y="380" width="170" height="20" as="geometry" />
        </mxCell>
        <mxCell id="Q9twDd0dUCqDXI2wr9aZ-33" value="" style="endArrow=none;dashed=1;html=1;rounded=0;exitX=0.5;exitY=0;exitDx=0;exitDy=0;" edge="1" parent="1" source="Q9twDd0dUCqDXI2wr9aZ-89" target="Q9twDd0dUCqDXI2wr9aZ-16">
          <mxGeometry width="50" height="50" relative="1" as="geometry">
            <mxPoint x="133.2399999999999" y="1239.5200000000002" as="sourcePoint" />
            <mxPoint x="128.14" y="430" as="targetPoint" />
            <Array as="points" />
          </mxGeometry>
        </mxCell>
        <mxCell id="Q9twDd0dUCqDXI2wr9aZ-43" value="" style="endArrow=classic;html=1;rounded=0;" edge="1" parent="1" target="Q9twDd0dUCqDXI2wr9aZ-44">
          <mxGeometry width="50" height="50" relative="1" as="geometry">
            <mxPoint x="342.5" y="315" as="sourcePoint" />
            <mxPoint x="238.75" y="315" as="targetPoint" />
          </mxGeometry>
        </mxCell>
        <mxCell id="Q9twDd0dUCqDXI2wr9aZ-44" value="" style="html=1;points=[[0,0,0,0,5],[0,1,0,0,-5],[1,0,0,0,5],[1,1,0,0,-5]];perimeter=orthogonalPerimeter;outlineConnect=0;targetShapes=umlLifeline;portConstraint=eastwest;newEdgeStyle={&quot;curved&quot;:0,&quot;rounded&quot;:0};" vertex="1" parent="1">
          <mxGeometry x="340" y="300" width="10" height="30" as="geometry" />
        </mxCell>
        <mxCell id="Q9twDd0dUCqDXI2wr9aZ-45" value="" style="html=1;points=[[0,0,0,0,5],[0,1,0,0,-5],[1,0,0,0,5],[1,1,0,0,-5]];perimeter=orthogonalPerimeter;outlineConnect=0;targetShapes=umlLifeline;portConstraint=eastwest;newEdgeStyle={&quot;curved&quot;:0,&quot;rounded&quot;:0};" vertex="1" parent="1">
          <mxGeometry x="340" y="350" width="10" height="30" as="geometry" />
        </mxCell>
        <mxCell id="Q9twDd0dUCqDXI2wr9aZ-90" value="" style="endArrow=none;dashed=1;html=1;rounded=0;exitX=0.5;exitY=0;exitDx=0;exitDy=0;" edge="1" parent="1" source="Q9twDd0dUCqDXI2wr9aZ-4" target="Q9twDd0dUCqDXI2wr9aZ-89">
          <mxGeometry width="50" height="50" relative="1" as="geometry">
            <mxPoint x="150" y="560" as="sourcePoint" />
            <mxPoint x="150" y="280" as="targetPoint" />
            <Array as="points" />
          </mxGeometry>
        </mxCell>
        <mxCell id="Q9twDd0dUCqDXI2wr9aZ-89" value="" style="html=1;points=[[0,0,0,0,5],[0,1,0,0,-5],[1,0,0,0,5],[1,1,0,0,-5]];perimeter=orthogonalPerimeter;outlineConnect=0;targetShapes=umlLifeline;portConstraint=eastwest;newEdgeStyle={&quot;curved&quot;:0,&quot;rounded&quot;:0};" vertex="1" parent="1">
          <mxGeometry x="150" y="400" width="10" height="30" as="geometry" />
        </mxCell>
      </root>
    </mxGraphModel>
  </diagram>
</mxfile>
